<?xml version="1.0" encoding="UTF-8"?>
<svg width="2481px" height="441px" viewBox="0 0 2481 441" version="1.1" xmlns="http://www.w3.org/2000/svg" xmlns:xlink="http://www.w3.org/1999/xlink" style="background: #FFFFFF;">
    <title>pointblank_logo@1x</title>
    <g id="Page-1" stroke="none" stroke-width="1" fill="none" fill-rule="evenodd">
        <g id="Pointblank" transform="translate(82.453382, 67.360000)" fill="#3C0000" fill-rule="nonzero">
            <path d="M44.3962295,192.730366 C44.3962295,185.366492 47.0299041,179.018325 52.2972534,173.685864 C57.5646026,168.353403 63.9606696,165.687173 71.4854542,165.687173 C78.7594128,165.687173 85.0300666,168.353403 90.2974159,173.685864 C95.5647652,179.018325 98.1984398,185.366492 98.1984398,192.730366 C98.1984398,200.348168 95.5647652,206.823298 90.2974159,212.155759 C85.0300666,217.48822 78.7594128,220.15445 71.4854542,220.15445 C63.9606696,220.15445 57.5646026,217.48822 52.2972534,212.155759 C47.0299041,206.823298 44.3962295,200.348168 44.3962295,192.730366 Z M0,11.4267016 L290.080449,11.4267016 C306.384149,11.4267016 318.172978,15.1086387 325.446936,22.4725131 C332.720895,29.8363874 336.357874,41.7709424 336.357874,58.276178 L336.357874,151.213351 C336.357874,167.718586 332.720895,179.653141 325.446936,187.017016 C318.172978,194.38089 306.384149,198.062827 290.080449,198.062827 L68.8517796,198.062827 L68.8517796,186.636126 L291.209166,186.636126 C302.997996,186.636126 311.463378,184.033377 316.605314,178.82788 C321.747251,173.622382 324.318219,165.052356 324.318219,153.117801 L324.318219,56.3717277 C324.318219,44.4371728 321.747251,35.8671466 316.605314,30.6616492 C311.463378,25.4561518 302.997996,22.8534031 291.209166,22.8534031 L12.0396555,22.8534031 L12.0396555,289.47644 L0,289.47644 L0,11.4267016 Z" id="P"></path>
            <path d="M366.833252,153.498691 C366.833252,136.993455 370.470231,125.058901 377.74419,117.695026 C385.018148,110.331152 396.806978,106.649215 413.110678,106.649215 L563.230132,106.649215 C579.533832,106.649215 591.322661,110.331152 598.59662,117.695026 C605.870578,125.058901 609.507557,136.993455 609.507557,153.498691 L609.507557,242.626963 C609.507557,259.132199 605.870578,271.066754 598.59662,278.430628 C591.322661,285.794503 579.533832,289.47644 563.230132,289.47644 L413.110678,289.47644 C396.806978,289.47644 385.018148,285.794503 377.74419,278.430628 C370.470231,271.066754 366.833252,259.132199 366.833252,242.626963 L366.833252,153.498691 Z M564.358849,278.049738 C576.147679,278.049738 584.613061,275.44699 589.754998,270.241492 C594.896934,265.035995 597.467902,256.465969 597.467902,244.531414 L597.467902,151.594241 C597.467902,139.659686 594.896934,131.08966 589.754998,125.884162 C584.613061,120.678665 576.147679,118.075916 564.358849,118.075916 L411.98196,118.075916 C400.193131,118.075916 391.727748,120.678665 386.585812,125.884162 C381.443876,131.08966 378.872908,139.659686 378.872908,151.594241 L378.872908,244.531414 C378.872908,256.465969 381.443876,265.035995 386.585812,270.241492 C391.727748,275.44699 400.193131,278.049738 411.98196,278.049738 L564.358849,278.049738 Z M487.982285,221.67801 C481.711631,221.67801 476.318869,219.39267 471.803998,214.82199 C467.289127,210.251309 465.031692,204.664921 465.031692,198.062827 C465.031692,191.71466 467.289127,186.255236 471.803998,181.684555 C476.318869,177.113874 481.711631,174.828534 487.982285,174.828534 C494.503765,174.828534 500.021941,177.113874 504.536811,181.684555 C509.051682,186.255236 511.309118,191.71466 511.309118,198.062827 C511.309118,204.664921 509.051682,210.251309 504.536811,214.82199 C500.021941,219.39267 494.503765,221.67801 487.982285,221.67801 Z" id="o"></path>
            <path d="M647.131481,106.649215 L659.171136,106.649215 L659.171136,289.47644 L647.131481,289.47644 L647.131481,106.649215 Z M653.151308,81.1295812 C646.880654,81.1295812 641.487892,78.8442408 636.973021,74.2735602 C632.45815,69.7028796 630.200715,64.1164921 630.200715,57.5143979 C630.200715,51.1662304 632.45815,45.7068063 636.973021,41.1361257 C641.487892,36.565445 646.880654,34.2801047 653.151308,34.2801047 C659.672788,34.2801047 665.190964,36.565445 669.705835,41.1361257 C674.220705,45.7068063 676.478141,51.1662304 676.478141,57.5143979 C676.478141,64.1164921 674.220705,69.7028796 669.705835,74.2735602 C665.190964,78.8442408 659.672788,81.1295812 653.151308,81.1295812 Z" id="i"></path>
            <path d="M697.923777,153.498691 C697.923777,136.993455 701.560756,125.058901 708.834715,117.695026 C716.108673,110.331152 727.897503,106.649215 744.201203,106.649215 L894.320657,106.649215 C910.624357,106.649215 922.413186,110.331152 929.687144,117.695026 C936.961103,125.058901 940.598082,136.993455 940.598082,153.498691 L940.598082,289.47644 L928.558427,289.47644 L928.558427,151.594241 C928.558427,139.659686 925.987459,131.08966 920.845523,125.884162 C915.703586,120.678665 907.238204,118.075916 895.449374,118.075916 L743.072485,118.075916 C731.283656,118.075916 722.818273,120.678665 717.676337,125.884162 C712.534401,131.08966 709.963432,139.659686 709.963432,151.594241 L709.963432,289.47644 L697.923777,289.47644 L697.923777,153.498691 Z M819.07281,221.67801 C812.802156,221.67801 807.409394,219.39267 802.894523,214.82199 C798.379652,210.251309 796.122217,204.664921 796.122217,198.062827 C796.122217,191.71466 798.379652,186.255236 802.894523,181.684555 C807.409394,177.113874 812.802156,174.828534 819.07281,174.828534 C825.59429,174.828534 831.112465,177.113874 835.627336,181.684555 C840.142207,186.255236 842.399642,191.71466 842.399642,198.062827 C842.399642,204.664921 840.142207,210.251309 835.627336,214.82199 C831.112465,219.39267 825.59429,221.67801 819.07281,221.67801 Z" id="n"></path>
            <path d="M960.538762,106.649215 L978.222006,106.649215 L978.222006,38.0890052 L990.261661,38.0890052 L990.261661,106.649215 L1116.67804,106.649215 L1116.67804,118.075916 L990.261661,118.075916 L990.261661,244.531414 C990.261661,256.465969 992.832629,265.035995 997.974565,270.241492 C1003.1165,275.44699 1011.58188,278.049738 1023.37071,278.049738 L1163.70795,278.049738 L1163.70795,289.47644 L1024.49943,289.47644 C1008.19573,289.47644 996.406902,285.794503 989.132943,278.430628 C981.858985,271.066754 978.222006,259.132199 978.222006,242.626963 L978.222006,118.075916 L960.538762,118.075916 L960.538762,106.649215 Z M1071.90557,221.67801 C1065.63492,221.67801 1060.24216,219.39267 1055.72729,214.82199 C1051.21242,210.251309 1048.95498,204.664921 1048.95498,198.062827 C1048.95498,191.71466 1051.21242,186.255236 1055.72729,181.684555 C1060.24216,177.113874 1065.63492,174.828534 1071.90557,174.828534 C1078.42705,174.828534 1083.94523,177.113874 1088.4601,181.684555 C1092.97497,186.255236 1095.23241,191.71466 1095.23241,198.062827 C1095.23241,204.664921 1092.97497,210.251309 1088.4601,214.82199 C1083.94523,219.39267 1078.42705,221.67801 1071.90557,221.67801 Z" id="t"></path>
            <path d="M1196.817,0 L1196.817,116.933246 C1204.34178,110.077225 1215.75437,106.649215 1231.05477,106.649215 L1381.17422,106.649215 C1397.47792,106.649215 1409.26675,110.331152 1416.54071,117.695026 C1423.81467,125.058901 1427.45165,136.993455 1427.45165,153.498691 L1427.45165,242.626963 C1427.45165,259.132199 1423.81467,271.066754 1416.54071,278.430628 C1409.26675,285.794503 1397.47792,289.47644 1381.17422,289.47644 L1231.05477,289.47644 C1214.75107,289.47644 1202.96224,285.794503 1195.68828,278.430628 C1188.41432,271.066754 1184.77734,259.132199 1184.77734,242.626963 L1184.77734,0 L1196.817,0 Z M1305.92638,221.67801 C1299.65572,221.67801 1294.26296,219.39267 1289.74809,214.82199 C1285.23322,210.251309 1282.97578,204.664921 1282.97578,198.062827 C1282.97578,191.71466 1285.23322,186.255236 1289.74809,181.684555 C1294.26296,177.113874 1299.65572,174.828534 1305.92638,174.828534 C1312.44786,174.828534 1317.96603,177.113874 1322.4809,181.684555 C1326.99577,186.255236 1329.25321,191.71466 1329.25321,198.062827 C1329.25321,204.664921 1326.99577,210.251309 1322.4809,214.82199 C1317.96603,219.39267 1312.44786,221.67801 1305.92638,221.67801 Z M1382.30294,278.049738 C1394.09177,278.049738 1402.55715,275.44699 1407.69909,270.241492 C1412.84103,265.035995 1415.41199,256.465969 1415.41199,244.531414 L1415.41199,151.594241 C1415.41199,139.659686 1412.84103,131.08966 1407.69909,125.884162 C1402.55715,120.678665 1394.09177,118.075916 1382.30294,118.075916 L1229.92605,118.075916 C1218.13722,118.075916 1209.67184,120.678665 1204.5299,125.884162 C1199.38797,131.08966 1196.817,139.659686 1196.817,151.594241 L1196.817,244.531414 C1196.817,256.465969 1199.38797,265.035995 1204.5299,270.241492 C1209.67184,275.44699 1218.13722,278.049738 1229.92605,278.049738 L1382.30294,278.049738 Z" id="b"></path>
            <path d="M1471.84788,291 C1465.57723,291 1460.18446,288.71466 1455.66959,284.143979 C1451.15472,279.573298 1448.89729,273.986911 1448.89729,267.384817 C1448.89729,261.036649 1451.15472,255.577225 1455.66959,251.006545 C1460.18446,246.435864 1465.57723,244.150524 1471.84788,244.150524 C1478.36936,244.150524 1483.88753,246.435864 1488.40241,251.006545 C1492.91728,255.577225 1495.17471,261.036649 1495.17471,267.384817 C1495.17471,273.986911 1492.91728,279.573298 1488.40241,284.143979 C1483.88753,288.71466 1478.36936,291 1471.84788,291 Z M1465.82805,0 L1477.86771,0 L1477.86771,289.47644 L1465.82805,289.47644 L1465.82805,0 Z" id="l"></path>
            <path d="M1516.62035,153.498691 C1516.62035,136.993455 1520.25733,125.058901 1527.53129,117.695026 C1534.80524,110.331152 1546.59407,106.649215 1562.89777,106.649215 L1711.13603,106.649215 C1727.43973,106.649215 1739.22856,110.331152 1746.50252,117.695026 C1753.77648,125.058901 1757.41346,136.993455 1757.41346,153.498691 L1757.41346,242.626963 C1757.41346,259.132199 1753.77648,271.066754 1746.50252,278.430628 C1739.22856,285.794503 1727.43973,289.47644 1711.13603,289.47644 L1561.01658,289.47644 C1544.71288,289.47644 1532.92405,285.794503 1525.65009,278.430628 C1518.37613,271.066754 1514.73915,259.132199 1514.73915,242.626963 L1514.73915,239.198953 C1514.73915,222.693717 1518.37613,210.759162 1525.65009,203.395288 C1532.92405,196.031414 1544.71288,192.349476 1561.01658,192.349476 L1667.11604,192.349476 C1668.37017,187.270942 1671.06655,183.081152 1675.20518,179.780105 C1679.34382,176.479058 1684.04681,174.828534 1689.31416,174.828534 C1695.83564,174.828534 1701.35381,177.113874 1705.86868,181.684555 C1710.38355,186.255236 1712.64099,191.71466 1712.64099,198.062827 C1712.64099,204.664921 1710.38355,210.251309 1705.86868,214.82199 C1701.35381,219.39267 1695.83564,221.67801 1689.31416,221.67801 C1684.04681,221.67801 1679.34382,219.964005 1675.20518,216.535995 C1671.06655,213.107984 1668.37017,208.854712 1667.11604,203.776178 L1559.88786,203.776178 C1548.09903,203.776178 1539.63365,206.378927 1534.49171,211.584424 C1529.34978,216.789921 1526.77881,225.359948 1526.77881,237.294503 L1526.77881,244.531414 C1526.77881,256.465969 1529.34978,265.035995 1534.49171,270.241492 C1539.63365,275.44699 1548.09903,278.049738 1559.88786,278.049738 L1712.26475,278.049738 C1724.05358,278.049738 1732.51896,275.44699 1737.6609,270.241492 C1742.80283,265.035995 1745.3738,256.465969 1745.3738,244.531414 L1745.3738,151.594241 C1745.3738,139.659686 1742.80283,131.08966 1737.6609,125.884162 C1732.51896,120.678665 1724.05358,118.075916 1712.26475,118.075916 L1561.76906,118.075916 C1549.98023,118.075916 1541.51484,120.678665 1536.37291,125.884162 C1531.23097,131.08966 1528.66,139.659686 1528.66,151.594241 L1528.66,175.971204 L1516.62035,175.971204 L1516.62035,153.498691 Z" id="a"></path>
            <path d="M1793.90866,153.498691 C1793.90866,136.993455 1797.54564,125.058901 1804.8196,117.695026 C1812.09356,110.331152 1823.88239,106.649215 1840.18609,106.649215 L1990.30554,106.649215 C2006.60924,106.649215 2018.39807,110.331152 2025.67203,117.695026 C2032.94599,125.058901 2036.58297,136.993455 2036.58297,153.498691 L2036.58297,289.47644 L2024.54331,289.47644 L2024.54331,151.594241 C2024.54331,139.659686 2021.97234,131.08966 2016.83041,125.884162 C2011.68847,120.678665 2003.22309,118.075916 1991.43426,118.075916 L1839.05737,118.075916 C1827.26854,118.075916 1818.80316,120.678665 1813.66122,125.884162 C1808.51929,131.08966 1805.94832,139.659686 1805.94832,151.594241 L1805.94832,289.47644 L1793.90866,289.47644 L1793.90866,153.498691 Z M1915.0577,221.67801 C1908.78704,221.67801 1903.39428,219.39267 1898.87941,214.82199 C1894.36454,210.251309 1892.1071,204.664921 1892.1071,198.062827 C1892.1071,191.71466 1894.36454,186.255236 1898.87941,181.684555 C1903.39428,177.113874 1908.78704,174.828534 1915.0577,174.828534 C1921.57918,174.828534 1927.09735,177.113874 1931.61222,181.684555 C1936.12709,186.255236 1938.38453,191.71466 1938.38453,198.062827 C1938.38453,204.664921 1936.12709,210.251309 1931.61222,214.82199 C1927.09735,219.39267 1921.57918,221.67801 1915.0577,221.67801 Z" id="n"></path>
            <path d="M2192.34601,216.34555 C2186.07536,216.34555 2180.68259,214.060209 2176.16772,209.489529 C2171.65285,204.918848 2169.39542,199.332461 2169.39542,192.730366 C2169.39542,186.382199 2171.65285,180.922775 2176.16772,176.352094 C2180.68259,171.781414 2186.07536,169.496073 2192.34601,169.496073 C2198.86749,169.496073 2204.38567,171.781414 2208.90054,176.352094 C2213.41541,180.922775 2215.67284,186.382199 2215.67284,192.730366 C2215.67284,199.332461 2213.41541,204.918848 2208.90054,209.489529 C2204.38567,214.060209 2198.86749,216.34555 2192.34601,216.34555 Z M2076.08809,0 L2088.12774,0 L2088.12774,197.301047 C2095.65253,190.445026 2107.06512,187.017016 2122.36551,187.017016 L2252.16805,187.017016 L2301.45539,106.649215 L2315,106.649215 L2265.71266,187.017016 C2281.76553,187.017016 2293.36624,190.762435 2300.51479,198.253272 C2307.66333,205.74411 2311.23761,217.615183 2311.23761,233.866492 L2311.23761,289.47644 L2299.19795,289.47644 L2299.19795,231.962042 C2299.19795,220.027487 2296.62698,211.457461 2291.48505,206.251963 C2286.34311,201.046466 2277.87773,198.443717 2266.0889,198.443717 L2121.2368,198.443717 C2109.44797,198.443717 2100.98258,201.046466 2095.84065,206.251963 C2090.69871,211.457461 2088.12774,220.027487 2088.12774,231.962042 L2088.12774,289.47644 L2076.08809,289.47644 L2076.08809,0 Z" id="k"></path>
        </g>
        <circle id="Oval" fill="#E20000" cx="154.010993" cy="260.268789" r="18"></circle>
        <circle id="Oval-Copy-3" fill="#E20000" cx="570.7139" cy="265.65" r="15"></circle>
        <circle id="Oval-Copy-8" fill="#E20000" cx="735.702447" cy="124.804146" r="15"></circle>
        <circle id="Oval-Copy-9" fill="#E20000" cx="901.711934" cy="265.65" r="15"></circle>
        <circle id="Oval-Copy-10" fill="#E20000" cx="1154.49299" cy="265.65" r="15"></circle>
        <circle id="Oval-Copy-11" fill="#E20000" cx="1388.5509" cy="265.65" r="15"></circle>
        <circle id="Oval-Copy-12" fill="#E20000" cx="1771.94209" cy="265.65" r="15"></circle>
        <circle id="Oval-Copy-15" fill="#E20000" cx="1554.27939" cy="334.832228" r="15"></circle>
        <circle id="Oval-Copy-13" fill="#E20000" cx="1997.72491" cy="265.64697" r="15"></circle>
        <circle id="Oval-Copy-14" fill="#E20000" cx="2274.81495" cy="260.187731" r="15"></circle>
    </g>
</svg>